<?xml version="1.0" encoding="UTF-8" standalone="no" ?>
<!DOCTYPE svg PUBLIC "-//W3C//DTD SVG 1.1//EN" "http://www.w3.org/Graphics/SVG/1.1/DTD/svg11.dtd">
<svg xmlns="http://www.w3.org/2000/svg" xmlns:xlink="http://www.w3.org/1999/xlink" version="1.1" width="1080"
  height="1080" viewBox="0 0 1080 1080" xml:space="preserve">
  <desc>Created with Fabric.js 5.2.4</desc>
  <defs>
  </defs>
  <rect x="0" y="0" width="100%" height="100%" fill="transparent"></rect>
  <g transform="matrix(1 0 0 1 540 540)" id="a1daf677-ca78-45e8-ba71-f0d9174ac13f">
    <rect
      style="stroke: none; stroke-width: 1; stroke-dasharray: none; stroke-linecap: butt; stroke-dashoffset: 0; stroke-linejoin: miter; stroke-miterlimit: 4; fill: rgb(255,255,255); fill-rule: nonzero; opacity: 1; visibility: hidden;"
      vector-effect="non-scaling-stroke" x="-540" y="-540" rx="0" ry="0" width="1080" height="1080" />
  </g>
  <g transform="matrix(Infinity NaN NaN Infinity 0 0)" id="2387b459-2c02-4e53-8f26-a963692c1515">
  </g>
  <g transform="matrix(1 0 0 1 673.02 134.83)" style="" id="0428a5c4-4c60-4ec9-a2e4-ac4758c88f53">
    <text xml:space="preserve" font-family="Raleway" font-size="153" font-style="normal" font-weight="900"
      style="stroke: none; stroke-width: 1; stroke-dasharray: none; stroke-linecap: butt; stroke-dashoffset: 0; stroke-linejoin: miter; stroke-miterlimit: 4; fill: rgb(8,32,245); fill-rule: nonzero; opacity: 1; white-space: pre;">
      <tspan x="-323.37" y="48.06">Broadify</tspan>
    </text>
  </g>
  <g transform="matrix(6.35 0 0 6.35 172.69 136.74)">
    <path
      style="stroke: none; stroke-width: 1; stroke-dasharray: none; stroke-linecap: butt; stroke-dashoffset: 0; stroke-linejoin: miter; stroke-miterlimit: 4; fill: rgb(8,32,245); fill-rule: evenodd; opacity: 1;"
      vector-effect="non-scaling-stroke" transform=" translate(-20.68, -20.14)"
      d="M 20.6841 40.138 C 31.7298 40.138 40.6841 31.1837 40.6841 20.138 C 40.6841 9.09234 31.7298 0.138031 20.6841 0.138031 C 9.63837 0.138031 0.684082 9.09234 0.684082 20.138 C 0.684082 31.1837 9.63837 40.138 20.6841 40.138 Z M 26.9234 9.45487 C 27.2271 8.37608 26.1802 7.73816 25.2241 8.41933 L 11.8772 17.9276 C 10.8403 18.6663 11.0034 20.138 12.1222 20.138 L 15.6368 20.138 L 15.6368 20.1108 L 22.4866 20.1108 L 16.9053 22.0801 L 14.4448 30.8212 C 14.1411 31.9 15.1879 32.5379 16.1441 31.8567 L 29.491 22.3485 C 30.5279 21.6098 30.3647 20.138 29.246 20.138 L 23.9162 20.138 L 26.9234 9.45487 Z"
      stroke-linecap="round" />
  </g>
</svg>